<svg width="24" height="18" viewBox="0 0 24 18" fill="none" xmlns="http://www.w3.org/2000/svg">
<g filter="url(#filter0_d_157_4774)">
<path d="M18.7104 1.20998C18.6175 1.11625 18.5069 1.04186 18.385 0.991091C18.2632 0.940323 18.1324 0.914185 18.0004 0.914185C17.8684 0.914185 17.7377 0.940323 17.6159 0.991091C17.494 1.04186 17.3834 1.11625 17.2904 1.20998L9.84044 8.66998L6.71044 5.52998C6.61392 5.43674 6.49998 5.36343 6.37512 5.31423C6.25026 5.26502 6.11694 5.24089 5.98276 5.24321C5.84858 5.24553 5.71617 5.27426 5.59309 5.32776C5.47001 5.38125 5.35868 5.45846 5.26544 5.55498C5.1722 5.6515 5.09889 5.76545 5.04968 5.8903C5.00048 6.01516 4.97635 6.14848 4.97867 6.28266C4.98099 6.41684 5.00972 6.54925 5.06321 6.67233C5.1167 6.79541 5.19392 6.90674 5.29044 6.99998L9.13044 10.84C9.2234 10.9337 9.334 11.0081 9.45586 11.0589C9.57772 11.1096 9.70843 11.1358 9.84044 11.1358C9.97245 11.1358 10.1032 11.1096 10.225 11.0589C10.3469 11.0081 10.4575 10.9337 10.5504 10.84L18.7104 2.67998C18.8119 2.58634 18.893 2.47269 18.9484 2.34619C19.0038 2.21969 19.0324 2.08308 19.0324 1.94498C19.0324 1.80688 19.0038 1.67028 18.9484 1.54378C18.893 1.41728 18.8119 1.30363 18.7104 1.20998Z" fill="white"/>
</g>
<defs>
<filter id="filter0_d_157_4774" x="0.978516" y="0.914185" width="22.0547" height="18.2216" filterUnits="userSpaceOnUse" color-interpolation-filters="sRGB">
<feFlood flood-opacity="0" result="BackgroundImageFix"/>
<feColorMatrix in="SourceAlpha" type="matrix" values="0 0 0 0 0 0 0 0 0 0 0 0 0 0 0 0 0 0 127 0" result="hardAlpha"/>
<feOffset dy="4"/>
<feGaussianBlur stdDeviation="2"/>
<feComposite in2="hardAlpha" operator="out"/>
<feColorMatrix type="matrix" values="0 0 0 0 0 0 0 0 0 0 0 0 0 0 0 0 0 0 0.25 0"/>
<feBlend mode="normal" in2="BackgroundImageFix" result="effect1_dropShadow_157_4774"/>
<feBlend mode="normal" in="SourceGraphic" in2="effect1_dropShadow_157_4774" result="shape"/>
</filter>
</defs>
</svg>
