<svg width="25" height="24" viewBox="0 0 25 24" fill="none" xmlns="http://www.w3.org/2000/svg">
<path d="M22.5 9.64095C22.6 9.14095 22.2 8.54095 21.7 8.54095L16 7.74095L13.4 2.54095C13.3 2.34095 13.2 2.24095 13 2.14095C12.5 1.84095 11.9 2.04095 11.6 2.54095L9.1 7.74095L3.4 8.54095C3.1 8.54095 2.9 8.64095 2.8 8.84095C2.4 9.24095 2.4 9.84095 2.8 10.241L6.9 14.241L5.9 19.941C5.9 20.141 5.9 20.341 6 20.541C6.3 21.041 6.9 21.241 7.4 20.941L12.5 18.241L17.6 20.941C17.7 21.041 17.9 21.041 18.1 21.041C18.2 21.041 18.2 21.041 18.3 21.041C18.8 20.941 19.2 20.441 19.1 19.841L18.1 14.141L22.2 10.141C22.4 10.041 22.5 9.84095 22.5 9.64095Z" fill="#FFBC57"/>
</svg>
