<svg width="32" height="31" viewBox="0 0 32 31" fill="none" xmlns="http://www.w3.org/2000/svg">
<g filter="url(#filter0_d_42_192)">
<path d="M24.5918 12.6961C24.3379 12.6961 24.0724 12.6153 23.8185 12.5576C23.3047 12.4427 22.7995 12.2923 22.3065 12.1074C21.7711 11.9126 21.1825 11.9228 20.6541 12.1358C20.1256 12.3489 19.6947 12.7499 19.4441 13.2616L19.1902 13.7925C18.0693 13.1568 17.0337 12.3811 16.1085 11.4842C15.2115 10.5589 14.4359 9.52341 13.8001 8.40248L14.3311 8.16011C14.8428 7.90955 15.2438 7.47859 15.4568 6.95016C15.6699 6.42173 15.68 5.83316 15.4852 5.29772C15.3019 4.8003 15.1516 4.29136 15.0351 3.77419C14.9774 3.52027 14.9312 3.25481 14.8966 3.00089C14.7564 2.1879 14.3306 1.45167 13.6958 0.92478C13.061 0.397891 12.2589 0.114967 11.434 0.126961H7.95994C7.47201 0.126321 6.98944 0.228815 6.54389 0.427723C6.09834 0.626631 5.69985 0.917461 5.37456 1.28115C5.04253 1.65471 4.79529 2.09572 4.64985 2.57388C4.50441 3.05204 4.46421 3.55603 4.53201 4.0512C5.15941 8.85509 7.35424 13.3178 10.7762 16.7473C14.2057 20.1692 18.6683 22.364 23.4722 22.9914C23.622 23.0029 23.7725 23.0029 23.9224 22.9914C24.7735 22.9927 25.5952 22.6804 26.2307 22.1142C26.5944 21.7889 26.8852 21.3905 27.0842 20.9449C27.2831 20.4994 27.3856 20.0168 27.3849 19.5289V16.0663C27.3787 15.2688 27.0974 14.4979 26.5885 13.8838C26.0795 13.2698 25.3743 12.8502 24.5918 12.6961ZM25.1573 19.6212C25.157 19.7822 25.1229 19.9414 25.0573 20.0885C24.9917 20.2356 24.896 20.3674 24.7765 20.4753C24.65 20.5905 24.4994 20.6762 24.3357 20.7261C24.172 20.776 23.9993 20.7889 23.83 20.7638C19.5229 20.2013 15.5202 18.2385 12.4382 15.1776C9.35359 12.093 7.37365 8.07627 6.80576 3.75111C6.78068 3.58183 6.79356 3.40909 6.84347 3.2454C6.89337 3.08172 6.97905 2.93117 7.0943 2.80468C7.20351 2.68366 7.33712 2.58715 7.48632 2.5215C7.63552 2.45585 7.79694 2.42255 7.95994 2.42379H11.4225C11.6893 2.41727 11.9501 2.50342 12.1606 2.66756C12.371 2.8317 12.5181 3.0637 12.5767 3.32406C12.5767 3.63569 12.6806 3.95886 12.7498 4.27049C12.8832 4.87513 13.0607 5.4692 13.2807 6.04794L11.6649 6.80971C11.3871 6.9372 11.1713 7.16964 11.0647 7.45605C10.9493 7.73705 10.9493 8.05223 11.0647 8.33323C12.7258 11.8913 15.5859 14.7514 19.144 16.4125C19.425 16.528 19.7402 16.528 20.0212 16.4125C20.3076 16.3059 20.5401 16.0901 20.6675 15.8124L21.3947 14.1965C21.9901 14.4136 22.5993 14.591 23.2183 14.7274C23.5184 14.7967 23.8416 14.8544 24.1532 14.9006C24.4136 14.9592 24.6456 15.1062 24.8097 15.3167C24.9738 15.5271 25.06 15.7879 25.0535 16.0547L25.1573 19.6212ZM18.3476 0C18.0822 0 17.8052 0 17.5397 0C17.2336 0.0260193 16.9504 0.172575 16.7523 0.407425C16.5542 0.642276 16.4576 0.946184 16.4836 1.25229C16.5096 1.5584 16.6562 1.84164 16.891 2.03969C17.1259 2.23775 17.4298 2.33439 17.7359 2.30838H18.3476C20.1843 2.30838 21.9457 3.03798 23.2444 4.3367C24.5431 5.63541 25.2728 7.39684 25.2728 9.2335C25.2728 9.44125 25.2728 9.63747 25.2728 9.84522C25.2472 10.1497 25.3434 10.4519 25.5402 10.6856C25.7371 10.9193 26.0187 11.0653 26.3231 11.0917H26.4154C26.7043 11.0929 26.9832 10.9857 27.1969 10.7912C27.4106 10.5967 27.5436 10.3292 27.5696 10.0414C27.5696 9.77597 27.5696 9.49896 27.5696 9.2335C27.5696 6.78662 26.5984 4.43979 24.8692 2.70851C23.1401 0.977221 20.7945 0.0030586 18.3476 0ZM20.656 9.2335C20.656 9.53961 20.7776 9.83318 20.9941 10.0496C21.2105 10.2661 21.5041 10.3877 21.8102 10.3877C22.1163 10.3877 22.4099 10.2661 22.6263 10.0496C22.8428 9.83318 22.9644 9.53961 22.9644 9.2335C22.9644 8.00906 22.478 6.83477 21.6122 5.96897C20.7464 5.10316 19.5721 4.61675 18.3476 4.61675C18.0415 4.61675 17.7479 4.73835 17.5315 4.9548C17.315 5.17126 17.1934 5.46483 17.1934 5.77094C17.1934 6.07705 17.315 6.37062 17.5315 6.58707C17.7479 6.80352 18.0415 6.92513 18.3476 6.92513C18.9598 6.92513 19.547 7.16833 19.9799 7.60123C20.4128 8.03414 20.656 8.62128 20.656 9.2335Z" fill="#535353"/>
</g>
<defs>
<filter id="filter0_d_42_192" x="0.5" y="0" width="31.0696" height="31" filterUnits="userSpaceOnUse" color-interpolation-filters="sRGB">
<feFlood flood-opacity="0" result="BackgroundImageFix"/>
<feColorMatrix in="SourceAlpha" type="matrix" values="0 0 0 0 0 0 0 0 0 0 0 0 0 0 0 0 0 0 127 0" result="hardAlpha"/>
<feOffset dy="4"/>
<feGaussianBlur stdDeviation="2"/>
<feComposite in2="hardAlpha" operator="out"/>
<feColorMatrix type="matrix" values="0 0 0 0 0 0 0 0 0 0 0 0 0 0 0 0 0 0 0.25 0"/>
<feBlend mode="normal" in2="BackgroundImageFix" result="effect1_dropShadow_42_192"/>
<feBlend mode="normal" in="SourceGraphic" in2="effect1_dropShadow_42_192" result="shape"/>
</filter>
</defs>
</svg>
